<svg width="866.2814692529921" height="1000" viewBox="0 0 866.2814692529921 1000" xmlns="http://www.w3.org/2000/svg"><defs/><path fill="none" visibility="hidden" transform="matrix(1.4444903012794057 0 0 1.4444903012794057 -17.824061081304166 -3.4225753198514237)" d="M 195.89648571429 276.81225714286 L 312.19648571429 338.31225714286 L 312.19648571429 484.81225714286 L 432.39648571429 417.91225714286 L 432.39648571429 279.11225714286 L 312.19648571429 209.71225714286 Z"/><path fill="#0f3877" transform="matrix(1.4444903012794057 0 0 1.4444903012794057 -17.824061081304166 -3.4225753198514237)" d="M 312.19648571429 106.21225714286 L 102.29648571429 227.31225714286 L 155.39648571429 255.41225714286 L 195.89648571429 276.81225714286 L 312.19648571429 209.71225714286 L 432.39648571429 279.11225714286 L 464.49648571429 260.61225714286 L 522.09648571429 227.31225714286 Z"/><g opacity="0.35" transform="matrix(1.4444903012794057 0 0 1.4444903012794057 -17.824061081304166 -3.4225753198514237)"><path fill="#0f3877" d="M 432.39648571429 279.11225714286 L 312.19648571429 209.71225714286 L 195.89648571429 276.81225714286 L 312.19648571429 338.31225714286 L 312.19648571429 338.31225714286 L 312.19648571429 484.81225714286 L 432.39648571429 417.91225714286 L 432.39648571429 279.11225714286 Z"/></g><g opacity="0.8" transform="matrix(1.4444903012794057 0 0 1.4444903012794057 -17.824061081304166 -3.4225753198514237)"><path fill="#0f3877" d="M 195.89648571429 276.81225714286 L 155.39648571429 255.41225714286 L 102.29648571429 227.31225714286 L 102.29648571429 330.91225714286 L 102.29648571429 469.71225714286 L 102.59648571429 469.81225714286 L 312.19648571429 338.31225714286 Z"/></g><g opacity="0.8" transform="matrix(1.4444903012794057 0 0 1.4444903012794057 -17.824061081304166 -3.4225753198514237)"><path fill="#0f3877" d="M 464.49648571429 260.61225714286 L 432.39648571429 279.11225714286 L 432.39648571429 417.91225714286 L 312.19648571429 484.81225714286 L 312.19648571429 590.81225714286 L 522.09648571429 469.71225714286 L 522.09648571429 330.91225714286 L 522.09648571429 227.31225714286 Z"/></g><path fill="#0f3877" transform="matrix(1.4444903012794057 0 0 1.4444903012794057 -17.824061081304166 -3.4225753198514237)" d="M 312.19648571429 338.31225714286 L 102.59648571429 469.81225714286 L 312.19648571429 590.81225714286 L 312.19648571429 484.81225714286 Z"/></svg>